<?xml version="1.0" encoding="UTF-8"?>
<svg data-name="Layer 1"
     version="1.1" viewBox="0 0 100 100"
     xmlns="http://www.w3.org/2000/svg">
  <path d="m44.125 2.4293e-4c-1.2159 1.211e-4 -2.2016 0.98579-2.2017 2.2017v5.9773c0.0013 1.0971 0.80995 2.0258 1.8964 2.1781-0.43179 0.10622-0.87223 0.17571-1.3008 0.29457l0.07095-0.01935c-0.08929 0.02163-0.17795 0.0446-0.26662 0.06666-0.02448 0.0061-0.04886 0.01248-0.07311 0.01935-1.298 0.37064-2.578 0.79911-3.838 1.2836-0.15033 0.05264-0.29963 0.10489-0.44938 0.15911-0.02379 0.0081-0.04745 0.01679-0.07094 0.02579-1.1547 0.46315-2.2908 0.9747-3.4036 1.5309-0.24287 0.11244-0.48376 0.22518-0.72459 0.34187-0.02241 0.01109-0.04464 0.02256-0.06666 0.0344-1.0186 0.5366-2.0158 1.11-2.9908 1.7222-0.30797 0.18035-0.61442 0.36286-0.9181 0.55043-0.02175 0.01396-0.04325 0.02829-0.0645 0.043-0.85689 0.57168-1.6952 1.1712-2.5113 1.7996-0.39274 0.2829-0.78181 0.57119-1.1654 0.8665-0.02108 0.0161-0.04186 0.0326-0.06235 0.04945-0.70978 0.58889-1.4 1.201-2.0727 1.8319-0.4373 0.38459-0.86784 0.77501-1.2901 1.1761-0.01897 0.0183-0.03761 0.03693-0.0559 0.0559-0.5966 0.60871-1.1758 1.2336-1.7373 1.8749-0.53255 0.5651-1.0516 1.1414-1.5545 1.733-0.80111 0.94172-0.67004 2.3583 0.29026 3.137l4.6464 3.7649c0.9322 0.75528 2.2975 0.62526 3.0704-0.29242 0.46364-0.55014 0.94404-1.0855 1.4406-1.6061 0.0175-0.01762 0.0347-0.03555 0.0516-0.05375 0.37686-0.42313 0.7642-0.83839 1.1611-1.2428 0.0043-0.0043 0.0087-0.0086 0.0129-0.0129 0.41512-0.39725 0.84091-0.78465 1.275-1.1611 0.01524-0.01341 0.0303-0.02703 0.04516-0.04085 0.41769-0.383 0.84575-0.75571 1.2815-1.1181 0.0035-3e-3 0.0073-0.0057 0.01079-0.0086 0.46306-0.36302 0.93623-0.71426 1.4169-1.0536 0.01666-0.01196 0.03314-0.02413 0.04945-0.03655 0.44254-0.33131 0.8926-0.65104 1.3503-0.9611 0.506-0.32081 1.0199-0.63003 1.5416-0.92455 0.01805-0.0098 0.03598-0.01982 0.05376-0.0301 0.46921-0.28259 0.94579-0.55456 1.4277-0.81489 0.51992-0.26024 1.046-0.50768 1.5782-0.74179 0.01947-0.0084 0.03883-0.01692 0.05805-0.0258 0.52243-0.2477 1.0506-0.48147 1.5846-0.70309 0.52558-0.20031 1.0543-0.38849 1.5889-0.56333 0.01944-0.0062 0.03879-0.01264 0.05805-0.01935 0.54507-0.19488 1.0951-0.37627 1.6491-0.54398 0.56984-0.1546 1.1432-0.29574 1.7201-0.42142 0.02012-0.0041 0.0402-0.0084 0.06021-0.0129 0.54207-0.13415 1.0884-0.25521 1.6362-0.36337 0.5826-0.0969 1.1678-0.17986 1.7545-0.24726 0.02083-0.0025 0.04161-0.0054 0.06235-0.0086 0.55833-0.08024 1.1177-0.1467 1.6792-0.19996 0.56713-0.03651 1.1347-0.05985 1.7029-0.0688 0.02078 2.94e-4 0.04157 2.94e-4 0.06235 0 0.58529-0.02547 1.1708-0.03608 1.7566-0.03225 0.54346 0.0206 1.0858 0.05311 1.6276 0.0989 0.02148 0.0018 0.04298 0.0032 0.0645 0.0043 0.60704 0.03332 1.2124 0.08358 1.8168 0.14836 0.53051 0.0737 1.0602 0.158 1.5868 0.25586 0.02073 0.0039 0.04151 0.0075 0.06235 0.01079 0.59739 0.09342 1.1928 0.20268 1.7846 0.32682 0.54664 0.1319 1.0901 0.27633 1.6298 0.43432 0.02141 0.0061 0.04291 0.0118 0.0645 0.01721 0.55222 0.14397 1.1003 0.30233 1.6448 0.47303 0.0052 0.0017 0.0099 0.0048 0.01505 0.0065 0.56122 0.19584 1.1179 0.40378 1.6685 0.62783 0.02066 0.0081 0.04145 0.01608 0.06235 0.02365 0.53084 0.19776 1.0554 0.40894 1.576 0.63214 3e-3 0.0012 0.0056 0.0031 0.0086 0.0043 0.50981 0.23778 1.0137 0.4884 1.5115 0.75039 0.01851 0.0096 0.03713 0.0189 0.0559 0.02795 0.52276 0.25649 1.0387 0.5263 1.5481 0.80844 0.48748 0.29027 0.96774 0.59166 1.4406 0.9052 0.01775 0.01172 0.03567 0.0232 0.05375 0.0344 0.49379 0.30742 0.97989 0.6274 1.4578 0.95895 0.0051 0.0035 0.01002 0.0073 0.01505 0.01079 0.45026 0.33264 0.89276 0.67611 1.3266 1.0299 0.01559 0.01312 0.03135 0.02603 0.0473 0.03871 0.46037 0.35446 0.91236 0.7197 1.3546 1.0966 0.41411 0.3763 0.81914 0.76324 1.2148 1.1589 0.01554 0.01529 0.03131 0.03034 0.0473 0.04516 0.42877 0.4034 0.84769 0.81832 1.2557 1.2428 0.36885 0.40872 0.72799 0.82578 1.0772 1.2514 0.01338 0.01668 0.02699 0.03317 0.04085 0.04945 0.39682 0.45621 0.78189 0.92151 1.1546 1.3976 0.31989 0.43669 0.62944 0.87985 0.92885 1.3309 0.01192 0.0181 0.0241 0.03602 0.03655 0.05375 0.34893 0.49341 0.68325 0.9965 1.0063 1.5072 0.2803 0.47364 0.55069 0.9521 0.80844 1.4384 0.0098 0.01878 0.01979 0.03742 0.0301 0.0559 0.29462 0.51947 0.57512 1.0466 0.84285 1.5803 0.2417 0.52194 0.47228 1.0493 0.68804 1.5825 0.0083 0.0202 0.01691 0.04027 0.0258 0.06021 0.22618 0.51372 0.43944 1.0327 0.64074 1.5567 0.19013 0.54634 0.36817 1.0963 0.53108 1.6513 0.0062 0.02088 0.01259 0.04167 0.01935 0.06235 0.17998 0.5519 0.34428 1.1084 0.49668 1.6685 0.13086 0.55039 0.25062 1.1038 0.35477 1.6599 4e-3 0.02157 0.0083 0.04307 0.0129 0.0645 0.12422 0.56995 0.23328 1.1425 0.32897 1.7179 0.07685 0.56396 0.13989 1.129 0.18921 1.6964 0.0019 0.0201 0.0041 0.04017 0.0065 0.06021 0.06671 0.58101 0.11717 1.1646 0.15481 1.748 0.0194 0.5679 0.02537 1.1363 0.01721 1.705-2.94e-4 0.02078-2.94e-4 0.04157 0 0.06235 8e-3 0.56774 0.0019 1.1366-0.01721 1.705-0.03772 0.58218-0.08817 1.1641-0.15481 1.7437-0.0024 0.02075-0.0046 0.04154-0.0065 0.06235-0.04906 0.56856-0.1125 1.1352-0.18921 1.7007-0.09318 0.55823-0.20021 1.1129-0.32037 1.6663-0.0039 0.02001-0.0075 0.04009-0.01079 0.06021-0.10885 0.57915-0.23198 1.1558-0.36982 1.7287-0.14622 0.53793-0.30569 1.0715-0.47732 1.6018-0.0061 0.01927-0.01173 0.03862-0.01721 0.05805-0.16684 0.56854-0.34861 1.1328-0.54398 1.6921-0.19938 0.52019-0.41252 1.0358-0.63643 1.5459-0.0081 0.01995-0.01606 0.04003-0.02365 0.06021-0.21996 0.54386-0.45402 1.0804-0.70094 1.6126-0.25049 0.49684-0.51101 0.98848-0.78479 1.4728-0.01104 0.01919-0.0218 0.03854-0.03226 0.05805-0.27743 0.52745-0.56905 1.0462-0.87295 1.5588-0.28776 0.4528-0.58416 0.8983-0.8923 1.3374-0.01171 0.01704-0.02317 0.03425-0.0344 0.05161-0.34135 0.51668-0.69827 1.0244-1.0665 1.5223-0.32446 0.41159-0.65724 0.816-0.9998 1.2127-0.01386 0.01628-0.02748 0.03277-0.04085 0.04945-0.3949 0.48538-0.80319 0.95982-1.2234 1.4234-0.37519 0.38912-0.75752 0.77028-1.1503 1.1417-0.01597 0.0141-0.03175 0.02844-0.0473 0.043-0.42629 0.42728-0.86384 0.84232-1.3116 1.2471-0.42236 0.35932-0.85331 0.71032-1.2922 1.0493-0.01595 0.01268-0.03172 0.02558-0.0473 0.03871-0.46032 0.37636-0.9295 0.73976-1.4083 1.0923-0.4562 0.31473-0.92056 0.61887-1.3911 0.91165-0.01809 0.01121-0.036 0.02268-0.05375 0.0344-0.49924 0.33147-1.0089 0.64914-1.5244 0.95465-0.0031 0.0019-0.0055 0.0046-0.0086 0.0065-0.47206 0.26039-0.9506 0.50986-1.4341 0.74824-0.01878 0.0098-0.03742 0.01979-0.0559 0.0301-0.52843 0.27974-1.0641 0.54529-1.6061 0.79769-0.5198 0.2223-1.046 0.433-1.576 0.62998-0.02018 0.0076-0.04026 0.01547-0.06021 0.02365-0.53016 0.21524-1.0661 0.41725-1.6061 0.60633-0.56872 0.17979-1.1408 0.34608-1.7179 0.49668-0.02159 0.0054-0.04309 0.01114-0.0645 0.01721-0.53902 0.15828-1.0838 0.30207-1.6298 0.43432-0.0044 0.0011-0.0085 0.0032-0.0129 0.0043-0.57872 0.12077-1.1597 0.22681-1.7437 0.31822-0.02084 0.0033-0.04162 0.0069-0.06235 0.01079-0.54061 0.10029-1.0831 0.18751-1.6276 0.26232-0.59354 0.06342-1.1889 0.11094-1.7846 0.14406-0.02081 0.0011-0.04159 0.0025-0.06235 0.0043-0.55425 0.04673-1.1099 0.08067-1.6663 0.10106-0.57784 0.0022-1.1562-9e-3 -1.733-0.0344-0.02149-0.0011-0.04299-0.0018-0.0645-0.0022-0.56306-8e-3 -1.1275-0.031-1.6921-0.06666-0.56681-0.05363-1.1327-0.12091-1.6964-0.20211-0.02146-0.0032-0.04296-0.0061-0.0645-0.0086-0.58552-0.06698-1.1688-0.1488-1.7502-0.24511-0.55032-0.10946-1.0982-0.23197-1.6427-0.36767-0.02142-0.0054-0.04292-0.01035-0.0645-0.01505-0.56582-0.12296-1.1288-0.2599-1.6878-0.41067-0.54939-0.16636-1.0935-0.34659-1.6341-0.53968-0.01998-0.0067-0.04005-0.01319-0.06021-0.01935-0.54693-0.17789-1.0902-0.36957-1.6276-0.57408-0.53466-0.22272-1.0638-0.45849-1.5868-0.70739-0.01922-0.0089-0.03857-0.01748-0.05805-0.0258-0.52287-0.23048-1.0392-0.47559-1.5502-0.73118-0.50848-0.27427-1.0108-0.56106-1.5051-0.86005-0.01847-0.01102-0.03711-0.02177-0.0559-0.03225-0.50141-0.2835-0.99461-0.58021-1.4814-0.888-0.0048-0.0031-0.01013-0.0055-0.01505-0.0086-0.47227-0.32043-0.935-0.65243-1.3911-0.9955-0.01772-0.01317-0.03565-0.02608-0.05376-0.03871-0.45973-0.32497-0.91099-0.66172-1.3546-1.0084-0.45959-0.38163-0.9086-0.7737-1.3481-1.1783-0.01558-0.01384-0.03134-0.02746-0.0473-0.04085-0.40735-0.35406-0.80701-0.71765-1.1976-1.0901l-0.0129-0.0129c-0.42243-0.42946-0.83437-0.86955-1.2342-1.3202-0.01688-0.01892-0.03408-0.03756-0.0516-0.0559-0.47568-0.50022-0.93712-1.0142-1.3825-1.5416-0.77331-0.91563-2.1369-1.0446-3.0682-0.29026l-4.6464 3.7649c-0.94503 0.7663-1.0895 2.1538-0.32252 3.0983 0.91674 1.13 1.8881 2.2143 2.9091 3.251 0.0099 0.01013 0.01997 0.02017 0.0301 0.0301 0.57519 0.5617 1.1653 1.1081 1.7695 1.6384l-0.07311-0.0645c0.50643 0.48576 1.024 0.95949 1.5524 1.4212 0.02463 0.02133 0.04971 0.04213 0.07525 0.06235 0.59908 0.47871 1.2094 0.9413 1.8319 1.389 0.57176 0.44696 1.1533 0.8818 1.7459 1.3008 0.02683 0.01852 0.05407 0.03644 0.08171 0.05376 0.56644 0.36363 1.1423 0.71335 1.7244 1.0514 0.0141 9e-3 0.02889 0.01682 0.043 0.0258 0.01308 0.0076 0.02562 0.01608 0.03871 0.02365 0.64993 0.41244 1.3081 0.81019 1.9781 1.189 0.02692 0.01563 0.05415 0.03068 0.08171 0.04516 0.61719 0.31527 1.2439 0.61422 1.8749 0.9009 0.01976 0.01002 0.04043 0.01801 0.06021 0.02795 0.0088 4e-3 0.01704 0.0089 0.0258 0.0129 0.67605 0.3395 1.359 0.66443 2.0512 0.9697 0.02912 0.01281 0.05851 0.025 0.08816 0.03655 0.66827 0.26077 1.3434 0.5044 2.0233 0.73319 0.71309 0.27166 1.4307 0.52794 2.1566 0.76329 0.02849 0.0091 0.05717 0.01779 0.08601 0.0258 0.71703 0.20079 1.4391 0.38303 2.1652 0.54828 0.70471 0.19103 1.4134 0.36784 2.1265 0.52463 0.03141 0.0064 0.06295 0.01216 0.09461 0.01721 0.7526 0.13132 1.508 0.24444 2.2662 0.33757 0.70882 0.11712 1.4193 0.21984 2.1329 0.30316 0.01504 1e-3 0.03009 3e-3 0.04516 4e-3 1.3102 0.12657 2.6251 0.17918 3.9412 0.19136 0.14737 0.0281 0.29722 0.0411 0.44722 0.0387 1.2386-0.0183 2.4762-0.0872 3.709-0.20641l0.03655-2e-3c0.32982-0.0235 0.6598-0.0512 0.98906-0.0817 0.01002-6.6e-4 0.02007-1e-3 0.0301-2e-3 34.616-3.6854 52.121-43.399 32.299-71.427l2.5995-2.5995c0.85948-0.85984 0.85948-2.2535 0-3.1134l-10.811-10.815c-0.85923-0.86009-2.2529-0.86108-3.1134-0.0022l-3.3499 3.3499c-3.8066-2.1644-7.8924-3.7263-12.155-4.7195h0.18061c1.2159-1.21e-4 2.2016-0.98579 2.2017-2.2017v-5.9773c-1.21e-4 -1.2159-0.98579-2.2016-2.2017-2.2017zm30.712 27.76c-0.57239 8e-3 -1.1192 0.23858-1.5244 0.64288l-19.553 19.551c-3.2653 0.42749-5.8593 3.1434-5.8591 6.517 9.25e-4 3.6638 3.0185 6.6807 6.6826 6.6804 3.3706 2.54e-4 6.0812-2.5895 6.5127-5.8505l19.557-19.557c0.86092-0.86008 0.86092-2.2554 0-3.1155l-4.2271-4.225c-0.42108-0.42011-0.9942-0.652-1.5889-0.64288z" style="paint-order:stroke fill markers"/>
  <path d="m2.0001 39.057c-1.1045 1.1e-4 -1.9999 0.89548-2 2v2.7109c1.1044e-4 1.1045 0.89548 1.9999 2 2h35.27c1.1045-1.1e-4 1.9999-0.89548 2-2v-2.7109c-1.1e-4 -1.1045-0.89548-1.9999-2-2zm16.279 21.711c-1.1045 1.1e-4 -1.9999 0.89548-2 2v2.709c1.1e-4 1.1045 0.89548 1.9999 2 2h18.99c1.1045-1.1e-4 1.9999-0.89548 2-2v-2.709c-1.1e-4 -1.1045-0.89548-1.9999-2-2z"  style="paint-order:stroke fill markers"/>
</svg>
